<svg width="36" height="36" viewBox="0 0 36 36" fill="none" xmlns="http://www.w3.org/2000/svg">
<path d="M35.7069 20.2838C36.963 10.4241 30.021 1.40876 20.2014 0.147447C10.3817 -1.11387 1.40298 5.85651 0.146849 15.7163C-1.10934 25.5759 5.83266 34.5913 15.6523 35.8526C25.472 37.1138 34.4507 30.1435 35.7069 20.2838Z" fill="#CDCED6"/>
<path d="M18.5911 17.7167V19.4421H22.3538V22.3278H18.6175V22.3175C18.5176 22.3175 18.4137 22.3278 18.3138 22.3278C17.7588 22.3294 17.2091 22.2186 16.6974 22.0024C15.954 21.6866 15.317 21.1622 14.863 20.492C14.3055 19.6624 14.0638 18.6591 14.1824 17.6653C14.3009 16.6718 14.7717 15.754 15.5085 15.0801C16.2455 14.4063 17.1994 14.0213 18.1957 13.9954C19.1922 13.9696 20.1646 14.3047 20.9352 14.9395H28.273C28.1792 14.6448 28.0693 14.3541 27.9531 14.0717C27.217 12.321 26.0221 10.8036 24.4954 9.68072C22.9688 8.55782 21.1674 7.8715 19.2832 7.69492C17.3988 7.51829 15.5021 7.85789 13.7949 8.67768C12.0875 9.4974 10.6334 10.7666 9.5875 12.3503C8.54154 13.9338 7.9427 15.7726 7.8548 17.6706C7.76691 19.5689 8.19321 21.4554 9.08833 23.1295C9.98338 24.8037 11.3137 26.2029 12.938 27.1782C14.5622 28.1536 16.4193 28.6685 18.3118 28.6683H28.7072V17.7126L18.5911 17.7167ZM22.3538 26.9266H18.8886C18.7582 26.9266 18.6236 26.9409 18.481 26.943H18.1794C16.677 26.9218 15.2054 26.5125 13.9064 25.7543C12.6074 24.9962 11.5249 23.9149 10.763 22.6146C10.0012 21.3143 9.5859 19.8388 9.55701 18.3304C9.52812 16.8221 9.88674 15.3318 10.5982 14.0031C11.3097 12.6743 12.3501 11.552 13.6192 10.7442C14.8881 9.93664 16.3429 9.47081 17.8433 9.39171C19.3438 9.31273 20.8392 9.62295 22.1855 10.2929C23.5317 10.9627 24.6833 11.9696 25.5294 13.2162H21.4977C20.7309 12.7195 19.8593 12.409 18.9521 12.3096C18.045 12.2101 17.1273 12.3244 16.2717 12.6433C15.4163 12.9623 14.6466 13.4771 14.024 14.1468C13.4011 14.8166 12.9426 15.6229 12.6844 16.5017C12.4263 17.3806 12.3758 18.3078 12.5369 19.2097C12.698 20.1115 13.0663 20.9632 13.6126 21.6973C14.1589 22.4312 14.8679 23.0272 15.6837 23.438C16.4994 23.8487 17.3992 24.0629 18.3118 24.0634H22.3538V26.9266ZM27.0053 26.943H24.0741L24.0904 26.9327H24.0741V24.0673H27.0053V26.943ZM27.0053 22.3318H24.0741V19.4461H27.0053V22.3318Z" fill="#CDCED6"/>
<path d="M18.0835 17.1718V18.8971H21.8482V21.7828H18.108V21.7727C18.0081 21.7727 17.9041 21.7828 17.8063 21.7828C17.1258 21.7841 16.4555 21.6166 15.855 21.2953C15.2544 20.974 14.7422 20.5087 14.3636 19.9409C13.9791 19.3655 13.7427 18.7032 13.6758 18.0134C13.609 17.3236 13.7136 16.628 13.9804 15.9889C14.2944 15.2415 14.8176 14.6016 15.4868 14.1469C16.0589 13.7596 16.7183 13.5215 17.4052 13.4543C18.092 13.3872 18.7847 13.493 19.4207 13.7621C19.7878 13.9171 20.131 14.1238 20.4398 14.3762H27.7778C27.6819 14.0813 27.5739 13.7908 27.4577 13.5084C26.7191 11.7608 25.5229 10.2467 23.996 9.12707C22.4692 8.00733 20.6688 7.32392 18.7862 7.14913C16.9035 6.97435 15.0088 7.31495 13.3035 8.13461C11.5981 8.95433 10.1457 10.2225 9.10054 11.8045C8.05532 13.3865 7.45648 15.2232 7.36753 17.1195C7.27865 19.0158 7.70286 20.9009 8.59527 22.5745C9.48773 24.2481 10.815 25.6477 12.436 26.6247C14.0572 27.6017 15.9115 28.1196 17.8023 28.1233H28.1976V17.1616L18.0835 17.1718ZM21.8482 26.3816H18.3831C18.2507 26.3816 18.1182 26.3959 17.9756 26.398H17.6799C16.1771 26.379 14.7044 25.9715 13.404 25.2147C12.1037 24.4578 11.0194 23.3774 10.256 22.0774C9.4926 20.7774 9.07566 19.3019 9.04547 17.793C9.01529 16.2841 9.37286 14.793 10.0836 13.4633C10.7944 12.1336 11.8345 11.0103 13.1035 10.2017C14.3727 9.39308 15.8278 8.92638 17.3288 8.84678C18.8297 8.76718 20.3257 9.07735 21.6725 9.74728C23.0193 10.4171 24.1715 11.4242 25.0179 12.6713H20.9901C20.2238 12.1707 19.3518 11.8567 18.4432 11.7543C17.5347 11.652 16.615 11.7641 15.7573 12.0817C14.8996 12.3994 14.1275 12.9138 13.5028 13.584C12.878 14.2541 12.4179 15.0615 12.1589 15.9419C11.8999 16.8222 11.8491 17.7512 12.0109 18.6546C12.1726 19.558 12.5423 20.411 13.0904 21.1457C13.6384 21.8804 14.3499 22.4763 15.1679 22.8862C15.9861 23.296 16.8881 23.5082 17.8023 23.5061H21.8442L21.8482 26.3816ZM26.4998 26.398H23.5687L23.5828 26.3878H23.5687V23.5061H26.4998V26.398ZM26.4998 21.7869H23.5687V18.9012H26.4998V21.7869Z" fill="#212B36"/>
<path d="M21.8483 23.5088H23.5687V24.3294H21.8483V23.5088Z" fill="#CDCED6"/>
<path d="M20.4562 18.8977H21.8483V19.7183H23.5667V18.8977H24.8283V18.8955H20.4562V18.8977Z" fill="#CDCED6"/>
</svg>
